<svg width="100%" viewBox="0 60 680 240" role="img" xmlns="http://www.w3.org/2000/svg" style="">
<title style="fill:rgb(0, 0, 0);stroke:none;color:rgb(0, 0, 0);stroke-width:1px;stroke-linecap:butt;stroke-linejoin:miter;opacity:1;font-family:-apple-system, BlinkMacSystemFont, &quot;Segoe UI&quot;, sans-serif;font-size:16px;font-weight:400;text-anchor:start;dominant-baseline:auto">hs logo, glossy variant with intensifying arrows</title>
<desc style="fill:rgb(0, 0, 0);stroke:none;color:rgb(0, 0, 0);stroke-width:1px;stroke-linecap:butt;stroke-linejoin:miter;opacity:1;font-family:-apple-system, BlinkMacSystemFont, &quot;Segoe UI&quot;, sans-serif;font-size:16px;font-weight:400;text-anchor:start;dominant-baseline:auto">Bold italic letters hs in electric red-magenta-violet with a glossy highlight, framed by tapered arrows whose gradient runs from a dim muted red to an intense vivid violet.</desc>
<defs>
<linearGradient id="g1" gradientUnits="userSpaceOnUse" x1="132" y1="0" x2="548" y2="0">
<stop offset="0" stop-color="#ad4a3a"/>
<stop offset="0.55" stop-color="#a134a8"/>
<stop offset="1" stop-color="#6428f0"/>
</linearGradient>
<linearGradient id="ge" gradientUnits="userSpaceOnUse" x1="250" y1="0" x2="430" y2="0">
<stop offset="0" stop-color="#ff3b1f"/>
<stop offset="0.5" stop-color="#ee2a9e"/>
<stop offset="1" stop-color="#7a3cff"/>
</linearGradient>
<linearGradient id="gloss" gradientUnits="userSpaceOnUse" x1="265" y1="105" x2="400" y2="235">
<stop offset="0" stop-color="#ffffff" stop-opacity="0.65"/>
<stop offset="0.38" stop-color="#ffffff" stop-opacity="0.18"/>
<stop offset="0.55" stop-color="#ffffff" stop-opacity="0"/>
</linearGradient>
<pattern id="motion" patternUnits="userSpaceOnUse" width="8" height="7">
<line x1="0" y1="3.5" x2="8" y2="3.5" stroke="#ffffff" stroke-opacity="0.28" stroke-width="2.2"/>
</pattern>
</defs>
<g fill="url(#g1)" style="stroke:none;color:rgb(0, 0, 0);stroke-width:1px;stroke-linecap:butt;stroke-linejoin:miter;opacity:1;font-family:-apple-system, BlinkMacSystemFont, &quot;Segoe UI&quot;, sans-serif;font-size:16px;font-weight:400;text-anchor:start;dominant-baseline:auto">
<path d="M144.0 155.5L149.1 155.6L154.2 155.7L159.3 155.8L164.4 155.9L169.5 156.0L174.5 156.0L179.6 156.1L184.7 156.2L189.8 156.3L194.9 156.4L200.1 156.5L204.1 156.4L208.0 156.0L211.8 155.2L215.3 154.1L218.7 152.7L221.9 151.1L224.9 149.2L227.8 147.2L230.5 144.9L233.1 142.5L235.6 140.0L238.0 137.3L240.4 134.6L242.7 131.8L245.0 128.9L247.3 126.0L249.7 123.0L252.0 120.0L254.4 117.1L256.9 114.1L259.5 111.2L262.2 108.4L265.0 105.5L267.9 102.8L270.9 100.2L274.2 97.6L277.6 95.2L281.2 92.9L285.0 90.7L289.1 88.7L293.4 86.8L298.1 85.1L303.0 83.6L308.2 82.3L313.8 81.3L319.8 80.4L326.1 79.8L332.8 79.5L340.0 79.5L347.2 79.8L353.9 80.4L360.1 81.2L366.0 82.2L371.5 83.5L376.6 85.0L381.4 86.6L385.9 88.5L390.0 90.5L393.9 92.6L397.6 94.8L401.0 97.2L404.2 99.7L407.2 102.3L410.1 105.0L412.8 107.7L415.4 110.6L417.9 113.5L420.3 116.4L422.7 119.4L425.0 122.4L427.2 125.4L429.4 128.4L431.6 131.5L433.9 134.5L436.1 137.4L438.5 140.3L440.9 143.2L443.5 145.9L446.2 148.6L449.1 151.1L452.1 153.5L455.4 155.7L459.0 157.6L462.7 159.3L466.7 160.6L471.0 161.6L475.4 162.3L479.8 162.5L483.7 162.6L487.4 162.7L491.1 162.7L494.9 162.8L498.6 162.9L502.3 162.9L506.0 163.0L506.0 131.0L548.0 152.0L506.0 173.0L506.0 141.0L502.3 141.1L498.6 141.1L494.9 141.2L491.1 141.3L487.4 141.3L483.7 141.4L480.2 141.5L477.1 141.4L474.6 141.1L472.2 140.7L469.9 140.0L467.8 139.2L465.7 138.1L463.7 136.9L461.6 135.4L459.6 133.8L457.5 131.9L455.5 129.8L453.4 127.5L451.3 125.1L449.1 122.5L446.9 119.7L444.6 116.9L442.3 113.9L439.8 110.8L437.3 107.7L434.6 104.5L431.8 101.3L428.9 98.1L425.7 95.0L422.4 91.8L418.8 88.8L415.1 85.8L411.1 82.9L406.8 80.2L402.3 77.6L397.5 75.2L392.4 73.0L387.0 71.0L381.3 69.2L375.3 67.7L368.9 66.5L362.3 65.5L355.2 64.9L347.8 64.5L340.0 64.5L332.2 64.8L324.8 65.4L317.8 66.3L311.2 67.4L305.0 68.9L299.1 70.6L293.5 72.5L288.3 74.6L283.4 76.9L278.8 79.5L274.4 82.1L270.4 84.9L266.6 87.9L263.0 90.9L259.6 94.0L256.5 97.1L253.5 100.3L250.7 103.6L248.1 106.8L245.6 110.0L243.2 113.2L240.9 116.3L238.6 119.3L236.5 122.3L234.3 125.2L232.2 127.9L230.1 130.5L228.0 133.0L225.9 135.3L223.7 137.5L221.6 139.4L219.3 141.1L217.0 142.7L214.6 144.1L212.0 145.2L209.3 146.1L206.4 146.8L203.3 147.3L199.9 147.5L194.9 147.6L189.8 147.7L184.7 147.8L179.6 147.9L174.5 148.0L169.5 148.0L164.4 148.1L159.3 148.2L154.2 148.3L149.1 148.4L144.0 148.5Z" id="ta" style="stroke:none;color:rgb(0, 0, 0);stroke-width:1px;stroke-linecap:butt;stroke-linejoin:miter;opacity:1;font-family:-apple-system, BlinkMacSystemFont, &quot;Segoe UI&quot;, sans-serif;font-size:16px;font-weight:400;text-anchor:start;dominant-baseline:auto"/>
<path d="M536.0 204.5L530.9 204.4L525.8 204.3L520.7 204.2L515.6 204.1L510.5 204.0L505.5 204.0L500.4 203.9L495.3 203.8L490.2 203.7L485.1 203.6L479.9 203.5L475.9 203.6L472.0 204.0L468.2 204.8L464.7 205.9L461.3 207.3L458.1 208.9L455.1 210.8L452.2 212.8L449.5 215.1L446.9 217.5L444.4 220.0L442.0 222.7L439.6 225.4L437.3 228.2L435.0 231.1L432.7 234.0L430.3 237.0L428.0 240.0L425.6 242.9L423.1 245.9L420.5 248.8L417.8 251.6L415.0 254.5L412.1 257.2L409.1 259.8L405.8 262.4L402.4 264.8L398.8 267.1L395.0 269.3L390.9 271.3L386.6 273.2L381.9 274.9L377.0 276.4L371.8 277.7L366.2 278.7L360.2 279.6L353.9 280.2L347.2 280.5L340.0 280.5L332.8 280.2L326.1 279.6L319.9 278.8L314.0 277.8L308.5 276.5L303.4 275.0L298.6 273.4L294.1 271.5L290.0 269.5L286.1 267.4L282.4 265.2L279.0 262.8L275.8 260.3L272.8 257.7L269.9 255.0L267.2 252.3L264.6 249.4L262.1 246.5L259.7 243.6L257.3 240.6L255.0 237.6L252.8 234.6L250.6 231.6L248.4 228.5L246.1 225.5L243.9 222.6L241.5 219.7L239.1 216.8L236.5 214.1L233.8 211.4L230.9 208.9L227.9 206.5L224.6 204.3L221.0 202.4L217.3 200.7L213.3 199.4L209.0 198.4L204.6 197.7L200.2 197.5L196.3 197.4L192.6 197.3L188.9 197.3L185.1 197.2L181.4 197.1L177.7 197.1L174.0 197.0L174.0 229.0L132.0 208.0L174.0 187.0L174.0 219.0L177.7 218.9L181.4 218.9L185.1 218.8L188.9 218.7L192.6 218.7L196.3 218.6L199.8 218.5L202.9 218.6L205.4 218.9L207.8 219.3L210.1 220.0L212.2 220.8L214.3 221.9L216.3 223.1L218.4 224.6L220.4 226.2L222.5 228.1L224.5 230.2L226.6 232.5L228.7 234.9L230.9 237.5L233.1 240.3L235.4 243.1L237.7 246.1L240.2 249.2L242.7 252.3L245.4 255.5L248.2 258.7L251.1 261.9L254.3 265.0L257.6 268.2L261.2 271.2L264.9 274.2L268.9 277.1L273.2 279.8L277.7 282.4L282.5 284.8L287.6 287.0L293.0 289.0L298.7 290.8L304.7 292.3L311.1 293.5L317.7 294.5L324.8 295.1L332.2 295.5L340.0 295.5L347.8 295.2L355.2 294.6L362.2 293.7L368.8 292.6L375.0 291.1L380.9 289.4L386.5 287.5L391.7 285.4L396.6 283.1L401.2 280.5L405.6 277.9L409.6 275.1L413.4 272.1L417.0 269.1L420.4 266.0L423.5 262.9L426.5 259.7L429.3 256.4L431.9 253.2L434.4 250.0L436.8 246.8L439.1 243.7L441.4 240.7L443.5 237.7L445.7 234.8L447.8 232.1L449.9 229.5L452.0 227.0L454.1 224.7L456.3 222.5L458.4 220.6L460.7 218.9L463.0 217.3L465.4 215.9L468.0 214.8L470.7 213.9L473.6 213.2L476.7 212.7L480.1 212.5L485.1 212.4L490.2 212.3L495.3 212.2L500.4 212.1L505.5 212.0L510.5 212.0L515.6 211.9L520.7 211.8L525.8 211.7L530.9 211.6L536.0 211.5Z" id="tb" style="stroke:none;color:rgb(0, 0, 0);stroke-width:1px;stroke-linecap:butt;stroke-linejoin:miter;opacity:1;font-family:-apple-system, BlinkMacSystemFont, &quot;Segoe UI&quot;, sans-serif;font-size:16px;font-weight:400;text-anchor:start;dominant-baseline:auto"/>
</g>
<use href="#ta" fill="url(#motion)" style="stroke:none;color:rgb(0, 0, 0);stroke-width:1px;stroke-linecap:butt;stroke-linejoin:miter;opacity:1;font-family:-apple-system, BlinkMacSystemFont, &quot;Segoe UI&quot;, sans-serif;font-size:16px;font-weight:400;text-anchor:start;dominant-baseline:auto"/>
<use href="#tb" fill="url(#motion)" style="stroke:none;color:rgb(0, 0, 0);stroke-width:1px;stroke-linecap:butt;stroke-linejoin:miter;opacity:1;font-family:-apple-system, BlinkMacSystemFont, &quot;Segoe UI&quot;, sans-serif;font-size:16px;font-weight:400;text-anchor:start;dominant-baseline:auto"/>
<g transform="translate(344 173) scale(1.12) translate(-340 -178)" fill="#000000" opacity="0.18" style="fill:rgb(0, 0, 0);stroke:none;color:rgb(0, 0, 0);stroke-width:1px;stroke-linecap:butt;stroke-linejoin:miter;opacity:0.18;font-family:-apple-system, BlinkMacSystemFont, &quot;Segoe UI&quot;, sans-serif;font-size:16px;font-weight:400;text-anchor:start;dominant-baseline:auto">
<path d="M338.9 183.4 330.6 226.0H308.2L315.2 189.5Q316.0 185.9 316.4 183.5Q316.8 181.0 316.8 179.6Q316.8 175.6 314.6 173.4Q312.3 171.2 308.3 171.2Q301.3 171.2 296.4 176.6Q291.4 182.0 289.5 191.6L282.7 226.0H260.3L279.2 128.8H301.7L294.3 166.2Q300.5 160.2 306.8 157.2Q313.0 154.3 319.8 154.3Q329.5 154.3 334.8 159.4Q340.0 164.4 340.0 173.6Q340.0 175.6 339.8 178.1Q339.5 180.5 338.9 183.4Z" style="fill:rgb(0, 0, 0);stroke:none;color:rgb(0, 0, 0);stroke-width:1px;stroke-linecap:butt;stroke-linejoin:miter;opacity:1;font-family:-apple-system, BlinkMacSystemFont, &quot;Segoe UI&quot;, sans-serif;font-size:16px;font-weight:400;text-anchor:start;dominant-baseline:auto"/>
<path d="M419.2 158.2 415.8 175.6Q409.3 172.4 402.8 170.8Q396.3 169.2 390.5 169.2Q383.8 169.2 380.2 170.9Q376.7 172.6 376.7 175.8Q376.7 177.7 378.7 178.8Q380.7 179.9 386.5 181.2L390.6 181.9Q404.2 184.8 409.6 189.3Q415.0 193.9 415.0 201.9Q415.0 214.1 405.5 221.0Q395.9 227.8 378.7 227.8Q371.5 227.8 364.0 226.7Q356.5 225.6 348.7 223.3L352.1 205.8Q358.2 209.3 365.1 211.1Q372.0 212.9 379.2 212.9Q386.3 212.9 389.8 211.2Q393.4 209.6 393.4 206.3Q393.4 204.1 391.4 202.8Q389.4 201.6 383.2 200.2L379.1 199.5Q367.1 197.0 362.0 192.1Q356.8 187.2 356.8 178.6Q356.8 166.9 365.7 160.6Q374.5 154.3 391.0 154.3Q398.2 154.3 405.1 155.3Q412.1 156.2 419.2 158.2Z" style="fill:rgb(0, 0, 0);stroke:none;color:rgb(0, 0, 0);stroke-width:1px;stroke-linecap:butt;stroke-linejoin:miter;opacity:1;font-family:-apple-system, BlinkMacSystemFont, &quot;Segoe UI&quot;, sans-serif;font-size:16px;font-weight:400;text-anchor:start;dominant-baseline:auto"/>
</g>
<g transform="translate(340 168) scale(1.12) translate(-340 -178)" style="fill:rgb(0, 0, 0);stroke:none;color:rgb(0, 0, 0);stroke-width:1px;stroke-linecap:butt;stroke-linejoin:miter;opacity:1;font-family:-apple-system, BlinkMacSystemFont, &quot;Segoe UI&quot;, sans-serif;font-size:16px;font-weight:400;text-anchor:start;dominant-baseline:auto">
<g fill="url(#ge)" stroke="url(#ge)" stroke-width="2.2" style="color:rgb(0, 0, 0);stroke-width:2.2px;stroke-linecap:butt;stroke-linejoin:miter;opacity:1;font-family:-apple-system, BlinkMacSystemFont, &quot;Segoe UI&quot;, sans-serif;font-size:16px;font-weight:400;text-anchor:start;dominant-baseline:auto">
<path d="M338.9 183.4 330.6 226.0H308.2L315.2 189.5Q316.0 185.9 316.4 183.5Q316.8 181.0 316.8 179.6Q316.8 175.6 314.6 173.4Q312.3 171.2 308.3 171.2Q301.3 171.2 296.4 176.6Q291.4 182.0 289.5 191.6L282.7 226.0H260.3L279.2 128.8H301.7L294.3 166.2Q300.5 160.2 306.8 157.2Q313.0 154.3 319.8 154.3Q329.5 154.3 334.8 159.4Q340.0 164.4 340.0 173.6Q340.0 175.6 339.8 178.1Q339.5 180.5 338.9 183.4Z" id="lh" style="color:rgb(0, 0, 0);stroke-width:2.2px;stroke-linecap:butt;stroke-linejoin:miter;opacity:1;font-family:-apple-system, BlinkMacSystemFont, &quot;Segoe UI&quot;, sans-serif;font-size:16px;font-weight:400;text-anchor:start;dominant-baseline:auto"/>
<path d="M419.2 158.2 415.8 175.6Q409.3 172.4 402.8 170.8Q396.3 169.2 390.5 169.2Q383.8 169.2 380.2 170.9Q376.7 172.6 376.7 175.8Q376.7 177.7 378.7 178.8Q380.7 179.9 386.5 181.2L390.6 181.9Q404.2 184.8 409.6 189.3Q415.0 193.9 415.0 201.9Q415.0 214.1 405.5 221.0Q395.9 227.8 378.7 227.8Q371.5 227.8 364.0 226.7Q356.5 225.6 348.7 223.3L352.1 205.8Q358.2 209.3 365.1 211.1Q372.0 212.9 379.2 212.9Q386.3 212.9 389.8 211.2Q393.4 209.6 393.4 206.3Q393.4 204.1 391.4 202.8Q389.4 201.6 383.2 200.2L379.1 199.5Q367.1 197.0 362.0 192.1Q356.8 187.2 356.8 178.6Q356.8 166.9 365.7 160.6Q374.5 154.3 391.0 154.3Q398.2 154.3 405.1 155.3Q412.1 156.2 419.2 158.2Z" id="ls" style="color:rgb(0, 0, 0);stroke-width:2.2px;stroke-linecap:butt;stroke-linejoin:miter;opacity:1;font-family:-apple-system, BlinkMacSystemFont, &quot;Segoe UI&quot;, sans-serif;font-size:16px;font-weight:400;text-anchor:start;dominant-baseline:auto"/>
</g>
<use href="#lh" fill="url(#gloss)" stroke="none" style="stroke:none;color:rgb(0, 0, 0);stroke-width:1px;stroke-linecap:butt;stroke-linejoin:miter;opacity:1;font-family:-apple-system, BlinkMacSystemFont, &quot;Segoe UI&quot;, sans-serif;font-size:16px;font-weight:400;text-anchor:start;dominant-baseline:auto"/>
<use href="#ls" fill="url(#gloss)" stroke="none" style="stroke:none;color:rgb(0, 0, 0);stroke-width:1px;stroke-linecap:butt;stroke-linejoin:miter;opacity:1;font-family:-apple-system, BlinkMacSystemFont, &quot;Segoe UI&quot;, sans-serif;font-size:16px;font-weight:400;text-anchor:start;dominant-baseline:auto"/>
</g>
</svg>